<svg width="706" height="183" viewBox="0 0 706 183" fill="none" xmlns="http://www.w3.org/2000/svg">
<g clip-path="url(#clip0)">
<path d="M200.782 16.8852C204.633 15.9541 208.647 16.1702 212.421 15.3654C213.419 16.3631 213.023 17.4107 213.027 18.3585C213.057 28.8808 213.027 39.4065 213.053 49.9322C213.053 53.8631 212.518 53.3243 216.306 53.331C228.165 53.3576 240.024 53.331 251.89 53.331C252.668 53.331 253.446 53.3808 254.218 53.331C255.429 53.2445 255.708 53.8664 255.688 54.9372C255.641 57.2652 255.582 59.5931 255.688 61.9211C255.774 63.5507 255.189 63.9896 253.609 63.9697C247.181 63.8932 240.752 63.9398 234.321 63.9398C228.002 63.9398 221.683 63.9398 215.365 63.9398C213.08 63.9398 213.037 63.9763 213.037 66.291C213.017 75.2636 213.017 84.2373 213.037 93.2121C213.037 110.049 213.037 126.888 213.037 143.729C212.979 148.159 213.653 152.568 215.032 156.778C217.586 164.338 223.11 168.086 230.782 169.04C237.862 169.928 244.663 168.794 251.235 166.11C252.565 165.571 253.862 164.993 255.385 164.344L259.785 174.521C249.898 179.423 239.858 182.17 228.907 180.507C226.053 180.078 223.253 179.569 220.526 178.608C210.549 175.079 205.015 167.68 202.481 157.736C201.14 152.368 200.476 146.854 200.502 141.321C200.502 116.948 200.502 92.5758 200.502 68.2032C200.45 67.4281 200.45 66.6504 200.502 65.8753C200.725 64.1859 199.937 63.8799 198.407 63.8799C192.088 63.9564 185.77 63.9398 179.451 63.8799C177.702 63.8799 175.537 64.6282 174.309 63.5473C173.032 62.4033 173.91 60.1984 173.877 58.4691C173.851 56.8495 173.119 54.8109 174.263 53.7001C175.407 52.5893 177.429 53.3476 179.062 53.3343C185.49 53.291 191.919 53.2478 198.351 53.3609C200.173 53.3941 200.529 52.7656 200.519 51.1061C200.452 40.464 200.482 29.822 200.492 19.1999C200.516 18.4516 200.333 17.6568 200.782 16.8852Z" fill="white"/>
<path d="M162.171 90.066C162.171 118.525 162.171 146.983 162.171 175.442C162.171 179.679 162.696 179.1 158.479 179.137C156.042 179.163 153.604 179.103 151.163 179.137C150.026 179.157 149.543 178.724 149.623 177.584C149.676 176.812 149.623 176.034 149.623 175.256C149.623 118.449 149.623 61.644 149.623 4.83978C149.623 0.263696 149.344 0.925499 153.478 0.888917C155.583 0.865638 157.688 0.855661 159.796 0.888917C162.094 0.925499 162.098 0.948779 162.164 3.33992C162.184 4.00504 162.164 4.67017 162.164 5.3353L162.171 90.066Z" fill="white"/>
<path d="M705.874 137.819C705.874 134.949 705.774 132.076 705.721 129.206C705.774 128.434 705.87 127.662 705.87 126.878C705.883 106.05 705.883 85.2206 705.87 64.3888C705.87 63.6172 705.77 62.8457 705.717 62.0608C705.764 61.0631 705.854 60.0854 705.854 59.0943C705.867 42.6723 705.867 26.2492 705.854 9.82493C705.854 8.82724 705.757 7.8495 705.707 6.86178C705.754 5.65125 705.757 4.43739 705.857 3.23351C705.973 1.78685 705.335 1.30463 703.931 1.31129C694.996 1.34454 686.06 1.34454 677.123 1.31129C675.773 1.31129 675.101 1.68043 675.128 3.17365C675.224 9.67528 675.244 16.1802 675.294 22.6819C675.244 23.8924 675.148 25.0996 675.148 26.3101C675.148 43.0736 675.161 59.8393 675.188 76.6072C675.188 78.8087 675.271 81.0136 675.314 83.2152C675.264 84.4258 675.175 85.633 675.175 86.8402C675.175 101.939 675.175 117.036 675.175 132.132C675.175 134.46 675.258 136.755 675.301 139.066C675.261 151.67 675.248 164.271 675.151 176.875C675.135 178.698 675.923 179.123 677.532 179.077C680.193 179 682.853 179.057 685.514 179.057C691.5 179.057 697.463 179.08 703.436 179.057C705.764 179.057 705.764 178.98 705.85 176.623C705.867 176.07 705.85 175.515 705.85 174.96C705.868 162.584 705.876 150.204 705.874 137.819Z" fill="url(#paint0_linear)"/>
<path d="M661.124 10.6963C661.168 8.16546 661.168 5.62799 661.277 3.09718C661.344 1.62059 660.672 1.21486 659.309 1.22152C650.376 1.25034 641.441 1.25034 632.504 1.22152C631.174 1.22152 630.462 1.55408 630.489 3.06725C630.592 8.46477 630.612 13.8656 630.661 19.2665C630.612 22.2329 630.508 25.1994 630.518 28.1659C630.548 38.7248 630.618 49.287 630.671 59.846C630.618 61.0532 630.522 62.2604 630.522 63.4676C630.522 74.9277 630.53 86.3868 630.545 97.8447C630.545 102.248 630.632 106.651 630.675 111.054C630.632 112.271 630.545 113.485 630.545 114.712C630.545 131.977 630.545 149.243 630.545 166.509C630.545 169.609 630.545 172.708 630.545 175.804C630.545 178.901 630.575 178.951 633.571 178.967C637.117 178.99 640.658 178.967 644.213 178.967C649.082 178.967 653.954 178.994 658.826 178.967C661.154 178.947 661.154 178.891 661.231 176.529C661.251 175.977 661.231 175.425 661.231 174.867C661.231 153.175 661.231 131.483 661.231 109.79C661.231 108.686 661.144 107.582 661.098 106.465C660.978 106.718 660.852 106.947 660.722 107.167C660.833 106.926 660.959 106.691 661.098 106.465C661.141 105.697 661.224 104.928 661.224 104.157C661.24 82.2076 661.251 60.2517 661.257 38.2891C661.257 37.5209 661.168 36.7527 661.118 35.9845C661.327 27.5506 661.37 19.1235 661.124 10.6963Z" fill="url(#paint1_linear)"/>
<path d="M466.723 93.4815C466.005 89.4641 465.13 85.4999 463.255 81.8151C463.01 81.4612 462.797 81.0861 462.619 80.6944C460.019 73.5243 455.872 67.455 449.852 62.7093C446.051 59.1974 441.515 56.9459 436.696 55.2765C426.027 51.575 415.049 50.9831 403.998 52.8288C396.26 54.1191 389.209 57.192 383.416 62.7093C379.156 65.8287 376.246 70.1887 372.99 74.502C370.16 68.7553 367.253 63.4941 362.095 59.939C360.612 58.2429 358.656 57.1887 356.708 56.191C347.203 51.3323 337.163 50.2747 326.777 52.3033C320.658 53.4973 314.901 55.629 310.209 59.9523C307.099 61.7981 305.373 64.9408 302.862 68.027C302.15 63.4709 301.439 59.3803 300.907 55.2432C300.73 53.8764 300.305 53.3243 298.891 53.331C290.398 53.3709 281.902 53.3709 273.404 53.331C272.113 53.331 271.658 53.8431 271.694 55.0969C271.784 58.2895 271.804 61.4854 271.854 64.6814C271.801 65.4496 271.708 66.2178 271.708 66.9861C271.708 86.4965 271.708 106.012 271.708 125.534C271.708 126.306 271.797 127.074 271.847 127.842C271.797 144.237 271.767 160.633 271.674 177.028C271.674 178.711 272.393 179.084 273.873 179.077C282.739 179.044 291.608 179.077 300.478 179.05C302.806 179.05 302.872 178.974 302.889 176.623C302.922 170.526 302.922 164.429 302.889 158.331C302.865 150.134 302.812 141.936 302.772 133.742C302.816 126.335 302.905 118.929 302.885 111.526C302.91 108.765 303.23 106.015 303.84 103.322C305.546 95.3405 309.653 88.8655 316.248 84.0034C319.856 81.5923 323.983 80.8939 328.174 80.4017L331.436 80.4183C335.45 80.7908 339.085 82.3938 342.723 83.9601C347.758 87.8412 351.33 92.7598 353.246 98.8424C354.555 102.947 355.246 107.225 355.294 111.533C355.352 117.827 355.397 124.122 355.431 130.416C355.391 130.855 355.311 131.294 355.311 131.746C355.311 146.57 355.311 161.392 355.311 176.213C355.311 178.931 355.354 179.037 357.306 179.047C366.382 179.087 375.454 179.047 384.527 179.08C385.987 179.08 386.522 178.448 386.439 177.085C386.406 176.533 386.439 175.977 386.439 175.422C386.439 156.727 386.439 138.034 386.439 119.342C386.439 118.244 386.632 117.127 386.189 116.059C386.569 114.879 386.406 113.658 386.446 112.454C386.535 110.04 386.479 107.612 386.924 105.221C388.587 96.2417 393.02 89.085 400.743 84.0699C403.772 82.1543 407.211 81.5823 410.656 81.0336H416.553C419.32 81.2963 421.787 82.6133 424.451 83.2418C431.102 87.4953 434.741 93.6544 436.127 101.337C436.815 104.913 437.189 108.543 437.245 112.185C437.268 116.508 437.335 120.815 437.381 125.132C437.338 125.571 437.255 126.01 437.255 126.462C437.255 143.066 437.255 159.67 437.255 176.273C437.255 176.606 437.281 176.938 437.255 177.271C437.172 178.518 437.717 179.087 438.994 179.06C440.989 179.02 442.985 179.06 444.98 179.06C451.964 179.06 458.948 179.08 465.908 179.06C468.29 179.06 468.29 178.99 468.373 176.669C468.373 176.227 468.373 175.784 468.373 175.339C468.373 157.74 468.373 140.14 468.373 122.541C468.373 121.437 468.276 120.336 468.223 119.232C468.732 110.619 468.229 101.977 466.723 93.4815Z" fill="url(#paint2_linear)"/>
<path d="M614.349 53.7666C605.702 53.8043 597.062 53.8043 588.428 53.7666C586.819 53.7666 586.234 54.4318 586.34 55.9549C586.366 56.62 586.357 57.2861 586.313 57.9503C586.167 61.8579 586.034 65.7656 585.439 69.63C584.687 69.5501 584.484 69.1344 584.241 68.7919C579.077 61.4755 571.99 56.8196 563.642 53.8265C551.427 49.4599 539.033 49.7792 526.691 52.7789C507.436 57.4648 493.332 68.5791 485.59 87.1395C483.022 93.2919 481.266 99.6605 481.06 106.375C480.471 106.98 480.565 107.705 480.661 108.45C480.275 110.017 480.355 111.6 480.481 113.186C479.916 121.251 480.619 129.356 482.563 137.204C485.021 147.364 489.584 156.459 496.657 164.298C511.929 181.229 540.596 186.719 559.755 180.593C570.064 177.298 578.987 172.143 584.78 162.605C584.81 162.527 584.859 162.457 584.922 162.402C584.985 162.347 585.06 162.308 585.142 162.29C585.223 162.271 585.308 162.273 585.389 162.295C585.47 162.316 585.544 162.358 585.605 162.415C586.516 167.264 586.184 172.286 586.935 177.215C587.145 178.595 587.6 179.12 588.977 179.117C597.398 179.084 605.818 179.07 614.252 179.117C615.888 179.117 616.444 178.452 616.297 176.945C616.247 176.396 616.297 175.841 616.297 175.282C616.297 155.677 616.297 136.073 616.297 116.472C616.297 115.368 616.218 114.263 616.174 113.146C616.211 112.704 616.281 112.265 616.281 111.816C616.296 93.4382 616.308 75.0596 616.317 56.6799C616.317 56.3473 616.287 56.0148 616.317 55.6822C616.41 54.2655 615.759 53.7467 614.349 53.7666ZM511.962 115.88C511.905 114.676 512.138 113.302 511.19 112.431C511.412 112.236 511.588 111.996 511.706 111.726C511.959 110.954 512.185 110.173 512.421 109.398C512.607 108.759 512.753 108.114 512.906 107.469C517.539 87.2426 533.525 77.6614 553.509 79.6069C568.062 81.0236 579.536 91.7322 582.991 106.308C583.48 108.377 583.324 110.692 584.947 112.401C583.364 113.961 584.138 116.126 584.052 118.005C583.64 127.273 580.806 135.548 574.531 142.545C566.529 151.461 556.24 154.427 544.779 153.35C530.645 152.019 520.2 145.092 514.892 131.477C512.94 126.472 512.218 121.217 511.962 115.88Z" fill="url(#paint3_linear)"/>
<path fill-rule="evenodd" clip-rule="evenodd" d="M116.034 57.0923V79.3175L115.495 79.4605C115.34 79.2324 115.183 79.006 115.025 78.7797C114.694 78.3032 114.363 77.827 114.052 77.3355C108.821 69.0912 101.761 62.8889 93.054 58.5223C79.4654 51.7081 65.1485 50.2448 50.4392 53.4041C31.9354 57.3749 17.7083 67.5049 8.56939 84.2428C0.830616 98.4101 -0.938625 113.622 1.85824 129.339C4.48217 144.108 11.3596 156.669 22.9262 166.37C36.1955 177.471 51.6165 182.107 68.8201 181.089C85.7409 180.088 99.6421 173.051 110.597 160.171C111.775 158.788 112.86 157.325 114.078 155.681C114.683 154.866 115.32 154.006 116.018 153.09V156.891C116.018 158.697 116.019 160.501 116.021 162.306C116.027 167.265 116.032 172.22 115.998 177.178C115.988 178.508 116.234 179.223 117.793 179.173C120.791 179.08 123.784 179.08 126.773 179.173C128.296 179.223 128.735 178.575 128.585 177.208C128.56 176.765 128.56 176.321 128.585 175.878V56.8794C128.585 56.6213 128.585 56.3679 128.584 56.1144C128.584 55.6071 128.583 55.0992 128.585 54.5515C128.589 53.73 128.183 53.3576 127.368 53.3576C126.259 53.3576 125.151 53.3598 124.042 53.362C121.825 53.3664 119.608 53.3709 117.391 53.3576C116.407 53.3542 116.001 53.8065 116.034 54.7643C116.052 55.2832 116.046 55.8007 116.04 56.3176C116.037 56.5759 116.034 56.8341 116.034 57.0923ZM28.6962 78.0438C17.9045 88.5196 13.5346 101.656 13.2685 116.708C13.2871 117.04 13.3036 117.399 13.3211 117.777C13.3629 118.685 13.4097 119.701 13.5013 120.708C15.3371 141.081 24.8218 156.303 43.8112 164.78C53.0964 168.924 62.9569 169.812 73.0503 168.412C88.2485 166.306 100.477 159.379 108.635 146.203C117.71 131.547 119.29 115.69 114.461 99.3678C110.164 84.8281 101.006 74.0863 86.8351 68.1667C77.3703 64.2191 67.4399 63.1383 57.2368 64.5084C46.2589 65.985 36.6478 70.3183 28.6962 78.0438Z" fill="white"/>
</g>
<defs>
<linearGradient id="paint0_linear" x1="688.623" y1="222.224" x2="690.961" y2="58.376" gradientUnits="userSpaceOnUse">
<stop stop-color="#9D5EA6"/>
<stop offset="1" stop-color="#ED2377"/>
</linearGradient>
<linearGradient id="paint1_linear" x1="644.007" y1="222.12" x2="646.34" y2="58.2824" gradientUnits="userSpaceOnUse">
<stop stop-color="#9D5EA6"/>
<stop offset="1" stop-color="#ED2377"/>
</linearGradient>
<linearGradient id="paint2_linear" x1="358.016" y1="210.085" x2="358.205" y2="92.3129" gradientUnits="userSpaceOnUse">
<stop stop-color="#9D5EA6"/>
<stop offset="1" stop-color="#ED2377"/>
</linearGradient>
<linearGradient id="paint3_linear" x1="539.992" y1="215.173" x2="540.285" y2="93.0381" gradientUnits="userSpaceOnUse">
<stop stop-color="#9D5EA6"/>
<stop offset="1" stop-color="#ED2377"/>
</linearGradient>
<clipPath id="clip0">
<rect width="705.286" height="182.106" fill="white" transform="translate(0.611084 0.888916)"/>
</clipPath>
</defs>
</svg>
