<svg width="102" height="27" viewBox="0 0 102 27" fill="none" xmlns="http://www.w3.org/2000/svg">
<g clip-path="url(#clip0)">
<path d="M29.1835 3.19701C29.7341 3.06389 30.3079 3.09479 30.8475 2.97974C30.9902 3.12237 30.9336 3.27213 30.9341 3.40763C30.9383 4.9119 30.9341 6.41666 30.9379 7.92141C30.9379 8.48337 30.8613 8.40635 31.4028 8.4073C33.0982 8.4111 34.7936 8.4073 36.49 8.4073C36.6012 8.4073 36.7125 8.41443 36.8228 8.4073C36.9959 8.39494 37.0358 8.48385 37.0329 8.63694C37.0263 8.96974 37.0177 9.30255 37.0329 9.63535C37.0453 9.86831 36.9616 9.93107 36.7358 9.92822C35.8168 9.91728 34.8978 9.92394 33.9783 9.92394C33.0749 9.92394 32.1716 9.92394 31.2683 9.92394C30.9417 9.92394 30.9355 9.92917 30.9355 10.2601C30.9326 11.5428 30.9326 12.8257 30.9355 14.1087C30.9355 16.5157 30.9355 18.923 30.9355 21.3306C30.9272 21.9639 31.0236 22.5943 31.2207 23.1962C31.5859 24.2768 32.3756 24.8127 33.4724 24.9491C34.4846 25.076 35.4569 24.9139 36.3963 24.5302C36.5865 24.4532 36.7719 24.3705 36.9897 24.2778L37.6187 25.7326C36.2052 26.4334 34.7699 26.8261 33.2043 26.5884C32.7963 26.5271 32.396 26.4543 32.0062 26.3169C30.5799 25.8125 29.7887 24.7547 29.4265 23.3331C29.2348 22.5657 29.1397 21.7773 29.1436 20.9864C29.1436 17.5021 29.1436 14.0177 29.1436 10.5334C29.1362 10.4226 29.1362 10.3115 29.1436 10.2006C29.1754 9.95912 29.0627 9.91538 28.844 9.91538C27.9407 9.92632 27.0374 9.92394 26.1341 9.91538C25.884 9.91538 25.5745 10.0224 25.399 9.86784C25.2165 9.70429 25.342 9.38907 25.3372 9.14185C25.3334 8.91031 25.2288 8.61887 25.3924 8.46007C25.5559 8.30128 25.845 8.40968 26.0784 8.40778C26.9975 8.4016 27.9165 8.39542 28.836 8.41158C29.0965 8.41633 29.1474 8.32648 29.1459 8.08924C29.1364 6.56784 29.1407 5.04645 29.1421 3.52791C29.1455 3.42094 29.1193 3.30731 29.1835 3.19701Z" fill="black"/>
<path d="M23.6637 13.6591C23.6637 17.7275 23.6637 21.796 23.6637 25.8644C23.6637 26.4701 23.7388 26.3874 23.1359 26.3926C22.7875 26.3964 22.439 26.3879 22.09 26.3926C21.9274 26.3955 21.8585 26.3337 21.8699 26.1706C21.8775 26.0603 21.8699 25.9491 21.8699 25.8378C21.8699 17.7167 21.8699 9.59584 21.8699 1.4751C21.8699 0.820899 21.8299 0.91551 22.4209 0.910281C22.7218 0.906953 23.0228 0.905526 23.3242 0.910281C23.6527 0.91551 23.6532 0.918839 23.6627 1.26068C23.6656 1.35576 23.6627 1.45085 23.6627 1.54594L23.6637 13.6591Z" fill="black"/>
<path d="M101.391 20.4859C101.391 20.0756 101.377 19.6648 101.369 19.2545C101.377 19.1442 101.391 19.0339 101.391 18.9217C101.393 15.9442 101.393 12.9664 101.391 9.98829C101.391 9.87799 101.377 9.76769 101.369 9.65548C101.376 9.51285 101.389 9.37307 101.389 9.23139C101.39 6.8837 101.39 4.53584 101.389 2.18783C101.389 2.0452 101.375 1.90542 101.368 1.76421C101.374 1.59116 101.375 1.41762 101.389 1.24551C101.406 1.0387 101.314 0.969762 101.114 0.970713C99.8364 0.975467 98.5589 0.975467 97.2812 0.970713C97.0882 0.970713 96.9922 1.02349 96.996 1.23696C97.0097 2.16643 97.0126 3.09638 97.0197 4.02586C97.0126 4.19892 96.9988 4.3715 96.9988 4.54456C96.9988 6.94107 97.0007 9.33789 97.0045 11.735C97.0045 12.0498 97.0164 12.365 97.0226 12.6797C97.0155 12.8528 97.0026 13.0254 97.0026 13.1979C97.0026 15.3564 97.0026 17.5147 97.0026 19.6729C97.0026 20.0057 97.0145 20.3337 97.0207 20.6642C97.015 22.4661 97.0131 24.2675 96.9993 26.0694C96.9969 26.3299 97.1096 26.3908 97.3397 26.3841C97.72 26.3732 98.1004 26.3813 98.4807 26.3813C99.3365 26.3813 100.189 26.3846 101.043 26.3813C101.376 26.3813 101.376 26.3703 101.388 26.0333C101.39 25.9543 101.388 25.8749 101.388 25.7955C101.391 24.0263 101.392 22.2564 101.391 20.4859Z" fill="url(#paint0_linear)"/>
<path d="M94.9941 2.31253C95.0002 1.95073 95.0003 1.58797 95.0159 1.22616C95.0254 1.01507 94.9294 0.957068 94.7345 0.958019C93.4575 0.96214 92.1801 0.96214 90.9025 0.958019C90.7123 0.958019 90.6106 1.00556 90.6144 1.22189C90.6291 1.99352 90.632 2.76562 90.6391 3.53773C90.632 3.96182 90.6172 4.3859 90.6186 4.80999C90.6229 6.3195 90.6329 7.82948 90.6405 9.33899C90.6329 9.51157 90.6191 9.68415 90.6191 9.85673C90.6191 11.4951 90.6202 13.1333 90.6224 14.7713C90.6224 15.4008 90.6348 16.0303 90.641 16.6597C90.6348 16.8337 90.6224 17.0073 90.6224 17.1827C90.6224 19.6509 90.6224 22.1192 90.6224 24.5876C90.6224 25.0307 90.6224 25.4738 90.6224 25.9165C90.6224 26.3591 90.6267 26.3662 91.0551 26.3686C91.5619 26.3719 92.0682 26.3686 92.5765 26.3686C93.2725 26.3686 93.969 26.3724 94.6655 26.3686C94.9983 26.3657 94.9983 26.3577 95.0093 26.0201C95.0121 25.9412 95.0093 25.8622 95.0093 25.7824C95.0093 22.6813 95.0093 19.5802 95.0093 16.4791C95.0093 16.3212 94.9969 16.1634 94.9903 16.0036C94.9731 16.0398 94.9551 16.0726 94.9365 16.1039C94.9525 16.0695 94.9704 16.036 94.9903 16.0036C94.9964 15.8938 95.0083 15.784 95.0083 15.6737C95.0106 12.5358 95.0121 9.39699 95.0131 6.25722C95.0131 6.14739 95.0003 6.03757 94.9931 5.92774C95.0231 4.72204 95.0292 3.51729 94.9941 2.31253Z" fill="url(#paint1_linear)"/>
<path d="M67.2024 14.1472C67.0997 13.5729 66.9746 13.0062 66.7065 12.4794C66.6715 12.4288 66.6411 12.3752 66.6157 12.3192C66.2439 11.2941 65.651 10.4265 64.7905 9.74802C64.2471 9.24597 63.5986 8.9241 62.9097 8.68543C61.3845 8.15627 59.8151 8.07164 58.2352 8.33551C57.1289 8.51998 56.1209 8.95928 55.2927 9.74802C54.6837 10.194 54.2677 10.8173 53.8022 11.4339C53.3976 10.6124 52.9821 9.86023 52.2447 9.35199C52.0327 9.10952 51.7531 8.9588 51.4745 8.81617C50.1157 8.12156 48.6804 7.97037 47.1956 8.26039C46.3208 8.43107 45.4978 8.73582 44.827 9.35389C44.3824 9.61776 44.1357 10.067 43.7767 10.5082C43.675 9.8569 43.5733 9.27211 43.4972 8.68067C43.472 8.48527 43.4111 8.40635 43.2091 8.4073C41.9948 8.413 40.7802 8.413 39.5653 8.4073C39.3809 8.4073 39.3157 8.48052 39.321 8.65975C39.3338 9.11617 39.3367 9.57307 39.3438 10.03C39.3362 10.1398 39.3229 10.2496 39.3229 10.3594C39.3229 13.1487 39.3229 15.9387 39.3229 18.7295C39.3229 18.8398 39.3357 18.9496 39.3428 19.0594C39.3357 21.4033 39.3314 23.7472 39.3181 26.0911C39.3181 26.3317 39.4208 26.3849 39.6324 26.384C40.8999 26.3792 42.1679 26.384 43.4359 26.3802C43.7687 26.3802 43.7782 26.3692 43.7805 26.0331C43.7853 25.1615 43.7853 24.2898 43.7805 23.4182C43.7772 22.2463 43.7696 21.0743 43.7639 19.9028C43.7701 18.844 43.7829 17.7852 43.7801 16.7269C43.7836 16.3322 43.8294 15.939 43.9165 15.554C44.1604 14.413 44.7476 13.4873 45.6904 12.7922C46.2062 12.4475 46.7962 12.3477 47.3953 12.2773L47.8617 12.2797C48.4355 12.333 48.9552 12.5621 49.4753 12.7861C50.1951 13.3409 50.7057 14.0441 50.9796 14.9136C51.1668 15.5005 51.2655 16.1119 51.2725 16.7279C51.2807 17.6277 51.2872 18.5276 51.2919 19.4274C51.2862 19.4902 51.2748 19.5529 51.2748 19.6176C51.2748 21.7367 51.2748 23.8558 51.2748 25.9746C51.2748 26.363 51.281 26.3783 51.5601 26.3797C52.8576 26.3854 54.1545 26.3797 55.4515 26.3844C55.6602 26.3844 55.7368 26.2941 55.7249 26.0992C55.7201 26.0203 55.7249 25.9409 55.7249 25.8615C55.7249 23.1889 55.7249 20.5165 55.7249 17.8442C55.7249 17.6873 55.7525 17.5276 55.6892 17.375C55.7434 17.2062 55.7201 17.0317 55.7259 16.8596C55.7387 16.5144 55.7306 16.1673 55.7943 15.8255C56.032 14.5418 56.6658 13.5187 57.7697 12.8017C58.2029 12.5279 58.6945 12.4461 59.187 12.3677H60.03C60.4255 12.4052 60.7783 12.5935 61.1591 12.6834C62.11 13.2914 62.6301 14.1719 62.8284 15.2702C62.9266 15.7815 62.9801 16.3005 62.9881 16.8211C62.9914 17.4391 63.001 18.0548 63.0076 18.6719C63.0014 18.7347 62.9895 18.7975 62.9895 18.8621C62.9895 21.2358 62.9895 23.6095 62.9895 25.9832C62.9895 26.0307 62.9933 26.0783 62.9895 26.1258C62.9777 26.3041 63.0556 26.3854 63.2382 26.3816C63.5235 26.3759 63.8087 26.3816 64.094 26.3816C65.0924 26.3816 66.0908 26.3844 67.0859 26.3816C67.4263 26.3816 67.4263 26.3716 67.4382 26.0397C67.4382 25.9765 67.4382 25.9133 67.4382 25.8496C67.4382 23.3336 67.4382 20.8176 67.4382 18.3016C67.4382 18.1437 67.4244 17.9864 67.4168 17.8285C67.4896 16.5973 67.4176 15.3617 67.2024 14.1472Z" fill="url(#paint2_linear)"/>
<path d="M88.3068 8.46953C87.0707 8.47491 85.8355 8.47491 84.6013 8.46953C84.3712 8.46953 84.2875 8.56461 84.3027 8.78236C84.3065 8.87745 84.3052 8.97267 84.2989 9.06762C84.278 9.62626 84.259 10.1849 84.1739 10.7373C84.0664 10.7259 84.0374 10.6665 84.0027 10.6175C83.2644 9.57158 82.2512 8.90597 81.0579 8.47808C79.3116 7.85384 77.5397 7.89948 75.7753 8.32832C73.0226 8.99821 71.0062 10.5871 69.8994 13.2405C69.5324 14.1201 69.2814 15.0305 69.2519 15.9904C69.1677 16.077 69.181 16.1806 69.1948 16.2871C69.1397 16.511 69.1511 16.7373 69.1691 16.9641C69.0883 18.1172 69.1888 19.2758 69.4668 20.3977C69.8181 21.8502 70.4704 23.1505 71.4817 24.2711C73.6649 26.6915 77.7631 27.4765 80.5021 26.6007C81.9759 26.1296 83.2515 25.3926 84.0797 24.0291C84.084 24.0179 84.0909 24.0079 84.1 24.0001C84.109 23.9922 84.1198 23.9867 84.1314 23.984C84.1431 23.9813 84.1553 23.9816 84.1668 23.9847C84.1783 23.9878 84.1889 23.9938 84.1977 24.002C84.3279 24.6952 84.2804 25.4131 84.3878 26.1177C84.4178 26.315 84.4829 26.3901 84.6797 26.3896C85.8835 26.3849 87.0873 26.383 88.293 26.3896C88.527 26.3896 88.6064 26.2945 88.5854 26.0792C88.5783 26.0007 88.5854 25.9213 88.5854 25.8414C88.5854 23.0386 88.5854 20.2361 88.5854 17.4338C88.5854 17.276 88.574 17.1182 88.5678 16.9584C88.5731 16.8952 88.5831 16.8324 88.5831 16.7682C88.5853 14.141 88.587 11.5136 88.5883 8.88601C88.5883 8.83846 88.584 8.79092 88.5883 8.74338C88.6016 8.54084 88.5084 8.46667 88.3068 8.46953ZM73.6696 17.3492C73.6615 17.1771 73.6948 16.9808 73.5593 16.8562C73.591 16.8284 73.6161 16.794 73.633 16.7554C73.6691 16.6451 73.7015 16.5334 73.7352 16.4226C73.7619 16.3313 73.7828 16.2391 73.8046 16.1468C74.4669 13.2553 76.7523 11.8855 79.6092 12.1637C81.6897 12.3662 83.33 13.8971 83.824 15.9809C83.8938 16.2766 83.8715 16.6075 84.1035 16.8519C83.8772 17.0749 83.988 17.3844 83.9756 17.653C83.9167 18.9781 83.5116 20.1609 82.6145 21.1613C81.4706 22.4359 79.9996 22.86 78.3612 22.7059C76.3406 22.5158 74.8473 21.5254 74.0885 19.579C73.8094 18.8635 73.7062 18.1123 73.6696 17.3492Z" fill="url(#paint3_linear)"/>
<path fill-rule="evenodd" clip-rule="evenodd" d="M17.0678 8.94521V12.1225L16.9908 12.143C16.9686 12.1104 16.9461 12.078 16.9236 12.0456C16.8763 11.9775 16.8289 11.9094 16.7845 11.8392C16.0366 10.6606 15.0273 9.77389 13.7826 9.14965C11.8399 8.17548 9.79319 7.96629 7.69034 8.41795C5.04502 8.98562 3.01111 10.4338 1.70462 12.8267C0.598279 14.852 0.345348 17.0267 0.745188 19.2736C1.12031 21.385 2.10351 23.1807 3.75707 24.5675C5.65405 26.1545 7.85865 26.8173 10.3181 26.6718C12.7371 26.5287 14.7244 25.5227 16.2905 23.6813C16.4589 23.4836 16.614 23.2745 16.7882 23.0395C16.8746 22.923 16.9657 22.8001 17.0654 22.6691V23.2125C17.0654 23.4706 17.0657 23.7286 17.066 23.9865C17.0667 24.6955 17.0675 25.404 17.0626 26.1127C17.0612 26.3029 17.0963 26.4051 17.3193 26.3979C17.7478 26.3846 18.1757 26.3846 18.603 26.3979C18.8207 26.4051 18.8835 26.3124 18.8621 26.117C18.8585 26.0536 18.8585 25.9901 18.8621 25.9268V8.91478C18.8621 8.87787 18.8621 8.84165 18.862 8.80541C18.8619 8.73288 18.8618 8.66028 18.8621 8.58198C18.8626 8.46454 18.8046 8.4113 18.6881 8.4113C18.5296 8.4113 18.3711 8.41161 18.2127 8.41193C17.8957 8.41256 17.5788 8.4132 17.2618 8.4113C17.1211 8.41082 17.0631 8.47548 17.0678 8.6124C17.0704 8.68659 17.0695 8.76056 17.0687 8.83447C17.0682 8.87139 17.0678 8.9083 17.0678 8.94521ZM4.58212 11.9402C3.03933 13.4379 2.41461 15.3158 2.37657 17.4676C2.37923 17.5151 2.3816 17.5665 2.38409 17.6205C2.39007 17.7504 2.39676 17.8956 2.40986 18.0396C2.6723 20.9521 4.02824 23.1282 6.74297 24.34C8.07038 24.9324 9.48005 25.0594 10.923 24.8592C13.0957 24.5583 14.8439 23.5679 16.0101 21.6843C17.3076 19.589 17.5334 17.3222 16.8431 14.9887C16.2288 12.9101 14.9195 11.3745 12.8937 10.5282C11.5406 9.96385 10.1209 9.80933 8.6623 10.0052C7.09289 10.2163 5.71888 10.8358 4.58212 11.9402Z" fill="black"/>
</g>
<defs>
<linearGradient id="paint0_linear" x1="98.9253" y1="32.5524" x2="99.2595" y2="9.1287" gradientUnits="userSpaceOnUse">
<stop stop-color="#9D5EA6"/>
<stop offset="1" stop-color="#ED2377"/>
</linearGradient>
<linearGradient id="paint1_linear" x1="92.5469" y1="32.5377" x2="92.8805" y2="9.11546" gradientUnits="userSpaceOnUse">
<stop stop-color="#9D5EA6"/>
<stop offset="1" stop-color="#ED2377"/>
</linearGradient>
<linearGradient id="paint2_linear" x1="51.6615" y1="30.8169" x2="51.6885" y2="13.9802" gradientUnits="userSpaceOnUse">
<stop stop-color="#9D5EA6"/>
<stop offset="1" stop-color="#ED2377"/>
</linearGradient>
<linearGradient id="paint3_linear" x1="77.6768" y1="31.5442" x2="77.7188" y2="14.0838" gradientUnits="userSpaceOnUse">
<stop stop-color="#9D5EA6"/>
<stop offset="1" stop-color="#ED2377"/>
</linearGradient>
<clipPath id="clip0">
<rect width="100.828" height="26.0339" fill="white" transform="translate(0.56665 0.9104)"/>
</clipPath>
</defs>
</svg>
