<svg width="25" height="24" viewBox="0 0 25 24" fill="none" xmlns="http://www.w3.org/2000/svg">
<path d="M13.6943 3.63808C14.7104 3.15784 15.5949 3 16.9722 3.00001C20.4925 3.01409 23.1125 5.89669 23.1125 9.58278C23.1125 12.4002 21.4894 15.1154 18.4684 17.7388C16.8845 19.1144 14.8622 20.4755 13.4153 21.199L12.6125 21.6004L11.8098 21.199C10.3629 20.4755 8.3406 19.1144 6.75665 17.7388C3.73571 15.1154 2.11255 12.4002 2.11255 9.58278C2.11255 5.85738 4.70799 3 8.26008 3C9.58773 3 10.518 3.17283 11.5541 3.66764C11.9276 3.84604 12.278 4.05894 12.6032 4.30582C12.941 4.04469 13.3053 3.8219 13.6943 3.63808Z" stroke="black" stroke-width="1.76107"/>
</svg>
