<svg width="24" height="24" viewBox="0 0 24 24" fill="none" xmlns="http://www.w3.org/2000/svg">
<path d="M14.6 16.5L19.79 7.5" stroke="#25282B" stroke-width="2" stroke-linecap="round" stroke-linejoin="round"/>
<path d="M7.99998 21L16 21C16.3507 20.9996 16.6952 20.9071 16.9988 20.7315C17.3025 20.556 17.5546 20.3037 17.73 20L21.73 13C21.9055 12.696 21.9979 12.3511 21.9979 12C21.9979 11.6489 21.9055 11.304 21.73 11L17.73 4C17.5546 3.69626 17.3025 3.44398 16.9988 3.26846C16.6952 3.09294 16.3507 3.00036 16 3L7.99998 3C7.64925 3.00036 7.30479 3.09294 7.00114 3.26846C6.69749 3.44398 6.44534 3.69626 6.26998 4L2.26998 11C2.09444 11.304 2.00203 11.6489 2.00203 12C2.00203 12.3511 2.09444 12.696 2.26998 13L6.26998 20C6.44534 20.3037 6.69749 20.556 7.00114 20.7315C7.30479 20.9071 7.64925 20.9996 7.99998 21Z" stroke="#25282B" stroke-width="2" stroke-linecap="round" stroke-linejoin="round"/>
<path d="M17.04 3.27002L11.99 12L17.04 20.73" stroke="#25282B" stroke-width="2" stroke-linecap="round" stroke-linejoin="round"/>
<path d="M1.92 12L12 12" stroke="#25282B" stroke-width="2" stroke-linecap="round" stroke-linejoin="round"/>
</svg>
