<svg width="17" height="16" viewBox="0 0 17 16" fill="none" xmlns="http://www.w3.org/2000/svg">
<g clip-path="url(#clip0)">
<path d="M6.61259 14.6666C6.98078 14.6666 7.27926 14.3681 7.27926 13.9999C7.27926 13.6317 6.98078 13.3333 6.61259 13.3333C6.2444 13.3333 5.94592 13.6317 5.94592 13.9999C5.94592 14.3681 6.2444 14.6666 6.61259 14.6666Z" stroke="#25282B" stroke-width="1.33333" stroke-linecap="round" stroke-linejoin="round"/>
<path d="M13.9458 14.6666C14.314 14.6666 14.6125 14.3681 14.6125 13.9999C14.6125 13.6317 14.314 13.3333 13.9458 13.3333C13.5777 13.3333 13.2792 13.6317 13.2792 13.9999C13.2792 14.3681 13.5777 14.6666 13.9458 14.6666Z" stroke="#25282B" stroke-width="1.33333" stroke-linecap="round" stroke-linejoin="round"/>
<path d="M1.27917 0.666748H3.94584L5.73251 9.59342C5.79347 9.90035 5.96045 10.1761 6.20421 10.3723C6.44796 10.5685 6.75297 10.6727 7.06584 10.6667H13.5458C13.8587 10.6727 14.1637 10.5685 14.4075 10.3723C14.6512 10.1761 14.8182 9.90035 14.8792 9.59342L15.9458 4.00008H4.61251" stroke="#25282B" stroke-width="1.33333" stroke-linecap="round" stroke-linejoin="round"/>
</g>
<defs>
<clipPath id="clip0">
<rect width="16" height="16" fill="white" transform="translate(0.612549)"/>
</clipPath>
</defs>
</svg>
